<svg xmlns="http://www.w3.org/2000/svg" viewBox="0 0 320 420" role="img" aria-label="Original grimoire symbol placeholder">
  <defs>
    <linearGradient id="book" x1="0" y1="0" x2="1" y2="1">
      <stop offset="0" stop-color="#ff244f"/>
      <stop offset="0.55" stop-color="#7c3cff"/>
      <stop offset="1" stop-color="#f6c85f"/>
    </linearGradient>
  </defs>
  <path d="M56 42h154c34 0 62 28 62 62v260c0 8-7 14-15 12-21-5-50-8-86-8H56c-12 0-22-10-22-22V64c0-12 10-22 22-22Z" fill="none" stroke="url(#book)" stroke-width="12" opacity="0.82"/>
  <path d="M78 88h118c18 0 32 14 32 32v204" fill="none" stroke="#f6c85f" stroke-width="5" opacity="0.55"/>
  <path d="M126 178 160 116l34 62 68 10-49 48 12 68-65-34-65 34 12-68-49-48Z" fill="none" stroke="url(#book)" stroke-width="8" stroke-linejoin="round" opacity="0.88"/>
  <path d="M98 332h118M98 352h90" stroke="#ff9ab0" stroke-width="6" stroke-linecap="round" opacity="0.62"/>
</svg>
